PathFileType	4	(X/Y/Z)	D:\telocate\uwb07-Unnamed.trc
DataRate	CameraRate	NumFrames	NumMarkers	Units	OrigDataRate	OrigDataStartFrame	OrigNumFrames
100.00	100.00	     236	0	mm	100.00	14469	     23149
Frame#	Time	
		

14469	144.680	241.54993	118.80341	2132.24414	
14470	144.690	241.95074	117.66776	2131.73535	
14471	144.700	242.31047	116.40990	2131.51172	
14472	144.710	242.77522	115.48190	2131.31177	
14473	144.720	242.93474	114.35142	2130.97827	
14474	144.730	243.42053	113.46469	2130.63892	
14475	144.740	244.21199	112.21127	2130.31470	
14476	144.750	244.96309	111.43780	2130.31470	
14477	144.760	245.81519	111.00446	2130.38086	
14478	144.770	245.06274	110.37465	2130.76587	
14479	144.780	246.46408	109.99755	2130.78931	
14480	144.790	248.76247	109.87556	2130.57178	
14481	144.800	250.51401	109.43010	2130.86035	
14482	144.810	252.34064	109.26192	2131.18164	
14483	144.820	254.18082	109.28403	2131.50952	
14484	144.830	257.93530	109.41845	2131.64380	
14485	144.840	259.83344	109.51595	2131.79492	
14486	144.850	262.70117	109.78533	2131.92090	
14487	144.860	265.11652	109.87441	2132.12427	
14488	144.870	266.20258	110.45808	2131.73877	
14489	144.880	268.28674	111.09782	2132.46948	
14490	144.890	270.50589	112.32822	2132.90894	
14491	144.900	272.45151	113.68661	2133.53467	
14492	144.910	274.88235	115.11806	2134.08936	
14493	144.920	277.04013	116.85697	2134.59668	
14494	144.930	278.80118	119.10966	2134.97095	
14495	144.940	279.71292	121.30972	2135.59546	
14496	144.950	280.51480	124.02093	2136.00659	
14497	144.960	281.03568	126.32600	2136.56812	
14498	144.970	280.65536	129.17146	2137.23950	
14499	144.980	280.08160	130.95674	2137.99731	
14500	144.990	278.93115	133.08232	2138.67822	
14501	145.000	277.62509	134.41837	2139.70435	
14502	145.010	275.74869	135.56264	2140.72192	
14503	145.020	273.43442	136.06651	2141.41089	
14504	145.030	271.30521	135.99223	2142.42798	
14505	145.040	269.38535	135.66902	2143.25610	
14506	145.050	267.72440	134.83699	2144.00024	
14507	145.060	266.41162	133.34801	2144.80273	
14508	145.070	262.28323	131.68367	2145.16943	
14509	145.080	263.74600	130.07933	2146.47632	
14510	145.090	261.37219	128.35103	2147.02490	
14511	145.100	262.73654	126.84223	2147.12964	
14512	145.110	262.10321	124.89525	2147.59473	
14513	145.120	261.84970	123.55450	2147.64648	
14514	145.130	261.68802	121.46338	2147.67773	
14515	145.140	261.59589	120.17773	2147.81934	
14516	145.150	260.91455	118.57669	2147.80493	
14517	145.160	260.50174	116.54822	2148.15894	
14518	145.170	259.83875	114.94916	2148.23584	
14519	145.180	258.81604	112.93759	2148.63184	
14520	145.190	257.36490	110.41381	2148.98804	
14521	145.200	254.08011	108.07063	2149.40112	
14522	145.210	252.58549	104.97500	2149.61987	
14523	145.220	251.00031	102.17897	2149.72974	
14524	145.230	249.24452	98.89964	2150.07056	
14525	145.240	246.75024	95.75588	2150.66553	
14526	145.250	244.48093	92.14252	2151.16528	
14527	145.260	242.40092	88.12189	2151.77051	
14528	145.270	240.35582	83.96998	2152.38110	
14529	145.280	239.22392	80.36162	2153.33374	
14530	145.290	237.95515	76.28363	2153.75879	
14531	145.300	236.49756	71.91390	2155.10156	
14532	145.310	235.16789	67.84684	2156.17627	
14533	145.320	234.43130	63.56667	2157.02588	
14534	145.330	232.89069	58.53261	2158.41089	
14535	145.340	232.48775	53.92087	2159.60059	
14536	145.350	231.62006	48.99971	2160.91724	
14537	145.360	230.91957	43.65884	2162.68774	
14538	145.370	230.65251	38.58746	2164.09277	
14539	145.380	230.52647	32.95311	2165.81763	
14540	145.390	230.14621	27.29270	2167.79858	
14541	145.400	230.66078	21.68840	2169.36865	
14542	145.410	230.56683	15.77818	2171.15332	
14543	145.420	230.86450	9.69736	2173.60889	
14544	145.430	231.11259	3.77758	2175.37036	
14545	145.440	231.30817	-2.50928	2177.71191	
14546	145.450	231.39525	-8.86309	2179.85425	
14547	145.460	231.55009	-15.18866	2182.05640	
14548	145.470	232.01109	-21.48379	2184.12769	
14549	145.480	232.26036	-27.76852	2186.34473	
14550	145.490	233.05104	-33.75935	2188.33740	
14551	145.500	233.64546	-40.19444	2190.24463	
14552	145.510	234.19449	-46.50518	2192.33032	
14553	145.520	235.08774	-53.10098	2193.93286	
14554	145.530	235.34967	-59.43688	2195.55591	
14555	145.540	236.19838	-65.80177	2197.36353	
14556	145.550	236.94969	-72.06575	2199.22778	
14557	145.560	237.54605	-78.57537	2201.14600	
14558	145.570	237.69070	-85.31507	2203.01343	
14559	145.580	238.56720	-90.91621	2204.66821	
14560	145.590	238.70363	-97.45152	2206.30225	
14561	145.600	238.69763	-104.06542	2208.61157	
14562	145.610	239.03806	-110.31527	2210.20898	
14563	145.620	239.56322	-116.90157	2212.00757	
14564	145.630	239.23314	-123.41223	2214.21997	
14565	145.640	239.31354	-130.31961	2215.73364	
14566	145.650	239.20084	-136.49181	2217.57397	
14567	145.660	239.11676	-143.17474	2219.24219	
14568	145.670	238.55824	-149.02065	2220.69897	
14569	145.680	238.32106	-155.31400	2222.01221	
14570	145.690	237.83728	-161.09398	2223.80249	
14571	145.700	238.69115	-167.05107	2225.45435	
14572	145.710	236.77809	-173.29448	2226.76123	
14573	145.720	236.83220	-179.38928	2228.75171	
14574	145.730	235.44603	-185.25754	2230.14819	
14575	145.740	233.99319	-191.19994	2231.98120	
14576	145.750	232.51782	-197.18202	2233.57983	
14577	145.760	230.83780	-203.39749	2235.17017	
14578	145.770	229.45053	-209.74544	2236.95630	
14579	145.780	225.85542	-216.14178	2238.61743	
14580	145.790	224.00833	-222.11008	2240.18921	
14581	145.800	222.63414	-227.86061	2242.01489	
14582	145.810	220.01546	-233.90285	2243.91064	
14583	145.820	219.80872	-239.66852	2245.63623	
14584	145.830	218.15079	-245.08560	2247.98315	
14585	145.840	215.41193	-250.80170	2250.07739	
14586	145.850	211.70316	-256.22791	2252.27393	
14587	145.860	209.83504	-261.25098	2254.59888	
14588	145.870	208.07024	-266.59003	2257.12451	
14589	145.880	205.75002	-272.01971	2259.33545	
14590	145.890	202.60249	-277.44846	2261.87354	
14591	145.900	200.54642	-282.40985	2264.07715	
14592	145.910	197.81538	-287.67224	2266.63208	
14593	145.920	195.85529	-293.03595	2269.00464	
14594	145.930	193.71301	-298.61591	2271.43945	
14595	145.940	190.30411	-304.38043	2274.39404	
14596	145.950	188.65279	-309.30219	2276.77734	
14597	145.960	188.25401	-314.81833	2279.19092	
14598	145.970	186.37425	-320.96426	2281.58032	
14599	145.980	183.24709	-326.54614	2283.84619	
14600	145.990	182.43065	-333.10843	2286.28076	
14601	146.000	181.19792	-339.22781	2288.46021	
14602	146.010	180.16083	-345.95313	2291.07690	
14603	146.020	179.41550	-352.38593	2293.29004	
14604	146.030	179.09886	-359.03604	2295.42871	
14605	146.040	178.54854	-365.24408	2297.37500	
14606	146.050	178.59813	-372.33893	2299.45190	
14607	146.060	178.95985	-379.22153	2301.14478	
14608	146.070	179.45013	-385.17377	2303.05933	
14609	146.080	180.17480	-391.80042	2304.22681	
14610	146.090	180.86635	-398.22974	2305.62915	
14611	146.100	181.94621	-404.15793	2306.62134	
14612	146.110	182.94458	-410.42441	2307.51147	
14613	146.120	184.55186	-416.21747	2308.49146	
14614	146.130	185.62589	-421.58960	2309.12695	
14615	146.140	186.38324	-427.00238	2309.71265	
14616	146.150	187.56656	-432.52872	2310.23193	
14617	146.160	187.90921	-437.83212	2310.17651	
14618	146.170	188.12746	-443.19806	2310.43604	
14619	146.180	188.79442	-448.34973	2310.46509	
14620	146.190	189.09479	-453.79245	2310.66504	
14621	146.200	189.89668	-458.84821	2310.86353	
14622	146.210	190.08281	-463.97998	2310.61206	
14623	146.220	190.99117	-468.81216	2310.53833	
14624	146.230	192.28961	-473.70514	2310.58374	
14625	146.240	193.53531	-478.56958	2310.54443	
14626	146.250	197.01459	-483.20435	2310.51147	
14627	146.260	198.79587	-487.87936	2310.42822	
14628	146.270	200.69612	-492.62411	2310.49292	
14629	146.280	202.45377	-497.17960	2310.55322	
14630	146.290	204.46608	-501.91946	2310.94604	
14631	146.300	206.30382	-506.13177	2310.70093	
14632	146.310	207.09795	-510.69452	2310.89111	
14633	146.320	208.82703	-515.04846	2311.11060	
14634	146.330	210.08315	-519.01947	2311.07813	
14635	146.340	211.84354	-523.54602	2310.90771	
14636	146.350	213.41986	-527.77490	2310.97583	
14637	146.360	215.33167	-532.25476	2310.77832	
14638	146.370	216.60234	-536.69727	2310.77637	
14639	146.380	218.95050	-540.32983	2310.49048	
14640	146.390	220.76076	-544.66504	2310.32007	
14641	146.400	222.62367	-548.71753	2309.97852	
14642	146.410	224.54774	-552.12152	2310.01489	
14643	146.420	226.13560	-556.00940	2310.52222	
14644	146.430	227.80096	-560.04889	2310.90308	
14645	146.440	228.97157	-563.91565	2311.12915	
14646	146.450	233.28952	-567.41614	2312.16919	
14647	146.460	234.76527	-570.95319	2312.88281	
14648	146.470	236.90669	-574.56946	2314.42651	
14649	146.480	238.78004	-578.30133	2316.11548	
14650	146.490	239.14413	-581.35455	2317.13086	
14651	146.500	241.41663	-584.66193	2318.58887	
14652	146.510	243.16759	-587.88336	2320.21606	
14653	146.520	245.98572	-590.53625	2321.50659	
14654	146.530	247.81505	-593.38196	2322.97192	
14655	146.540	248.73853	-596.47498	2324.49854	
14656	146.550	250.05833	-599.44568	2326.09790	
14657	146.560	251.22229	-601.55566	2327.64648	
14658	146.570	252.45033	-604.57257	2329.00195	
14659	146.580	253.03249	-607.16534	2330.62134	
14660	146.590	253.66487	-609.77795	2331.91724	
14661	146.600	254.13838	-612.16736	2333.00415	
14662	146.610	256.90689	-614.47784	2334.51196	
14663	146.620	258.00131	-615.76703	2335.48145	
14664	146.630	259.32098	-617.82190	2336.75928	
14665	146.640	258.53983	-619.21985	2337.95020	
14666	146.650	258.98434	-620.62811	2339.37671	
14667	146.660	261.80600	-621.56921	2340.59375	
14668	146.670	262.21948	-622.36407	2342.02710	
14669	146.680	262.62115	-623.07788	2343.32031	
14670	146.690	263.28214	-623.84741	2344.91528	
14671	146.700	262.89514	-624.29535	2346.77515	
14672	146.710	262.66022	-624.60333	2348.35840	
14673	146.720	262.94928	-624.51758	2349.72192	
14674	146.730	262.71292	-624.18750	2351.64282	
14675	146.740	262.27966	-623.44586	2353.79834	
14676	146.750	262.23444	-622.97168	2355.56494	
14677	146.760	262.49557	-621.96649	2357.77832	
14678	146.770	262.57297	-620.44659	2359.71899	
14679	146.780	262.69846	-618.64130	2361.79346	
14680	146.790	262.93796	-616.22064	2363.60132	
14681	146.800	263.30276	-613.54950	2366.02075	
14682	146.810	263.74686	-609.85455	2367.78809	
14683	146.820	264.08826	-606.15430	2369.64429	
14684	146.830	264.32343	-601.94135	2371.60059	
14685	146.840	264.00439	-597.02789	2372.77344	
14686	146.850	263.74118	-592.30005	2374.44189	
14687	146.860	262.48749	-587.33752	2375.87500	
14688	146.870	261.11411	-582.21393	2377.21753	
14689	146.880	259.68884	-577.81268	2378.46143	
14690	146.890	257.61053	-573.76709	2379.81567	
14691	146.900	255.76274	-570.55676	2380.98340	
14692	146.910	252.22218	-568.07257	2382.20703	
14693	146.920	250.63597	-565.80170	2383.17407	
14694	146.930	250.09532	-564.41272	2384.57739	
14695	146.940	250.39626	-563.69519	2385.70898	
14696	146.950	250.58748	-563.71472	2387.06885	
14697	146.960	252.16699	-564.11884	2388.83911	
14698	146.970	256.41403	-565.25598	2390.20239	
14699	146.980	258.72339	-566.67224	2391.73169	
14700	146.990	261.02954	-567.96759	2393.85547	
14701	147.000	263.95786	-569.63483	2395.60571	
14702	147.010	265.23724	-571.55334	2397.20166	
14703	147.020	267.51523	-573.71783	2398.74609	
14704	147.030	269.89575	-575.39410	2400.55225	
